<?xml version="1.0" encoding="UTF-8"?>
<svg version="1.1" viewBox="0 0 336.04 86.044" xmlns="http://www.w3.org/2000/svg">
 <g transform="translate(.9 -139.28)" fill="#b3b3b3">
  <g transform="translate(-34.018)">
   <rect x="34.018" y="140.18" width="16.631" height="16.631" ry=".59438"/>
   <rect x="62.24" y="140.18" width="16.631" height="16.631" ry=".59438"/>
   <rect x="90.462" y="140.18" width="16.631" height="16.631" ry=".59438"/>
   <rect x="118.68" y="140.18" width="16.631" height="16.631" ry=".59438"/>
  </g>
  <g transform="translate(-34.018,67.613)">
   <rect x="34.018" y="140.18" width="16.631" height="16.631" ry=".59438"/>
   <rect x="62.24" y="140.18" width="16.631" height="16.631" ry=".59438"/>
   <rect x="90.462" y="140.18" width="16.631" height="16.631" ry=".59438"/>
   <rect x="118.68" y="140.18" width="16.631" height="16.631" ry=".59438"/>
  </g>
 </g>
 <path d="m54.84 43.022-39.616 22.872v-45.744l19.808 11.436z" fill="#5b5b92"/>
 <g transform="matrix(1.362 0 0 1.362 -46.139 21.4)" fill-opacity=".7098">
  <circle cx="79.375" cy="15.875" r="15.875" fill="#008fd4"/>
  <g fill="#fff">
   <circle cx="79.375" cy="5.783" r="3.7798"/>
   <circle cx="79.375" cy="25.972" r="3.7798"/>
   <circle cx="69.17" cy="15.875" r="3.7798"/>
   <circle cx="89.599" cy="15.875" r="3.7798"/>
  </g>
 </g>
 <g transform="translate(.9 .12938)" fill="#5b5b92" stroke-width="2.9158" aria-label="Filmster">
  <path d="m154.96 18.959v47.26h5.041v-47.26zm-13.244 1.6094c-0.85043 0-1.558 0.27361-2.125 0.82031-0.56696 0.52646-0.85156 1.3673-0.85156 2.5215 0 1.1339 0.2846 1.9838 0.85156 2.5508 0.56696 0.54671 1.2746 0.82031 2.125 0.82031 0.80994 0 1.5085-0.27361 2.0957-0.82031 0.5872-0.56696 0.88086-1.4169 0.88086-2.5508 0-1.1339-0.29366-1.9748-0.88086-2.5215-0.5872-0.54671-1.2858-0.82031-2.0957-0.82031zm-33.865 1.2461v44.404h5.1641v-18.982h18.406v-4.5859h-18.406v-16.25h19.59v-4.5859zm152.87 3.4004-2.125 7.1074-4.7695 2.0957v2.4297h4.7695v19.805c0 6.7832 3.2192 10.174 9.6582 10.174 0.85043 0 1.8026-0.0912 2.8555-0.27344 1.0732-0.16199 1.883-0.37544 2.4297-0.63867v-3.8555c-0.48596 0.14174-1.1444 0.28209-1.9746 0.42383-0.83018 0.12149-1.6911 0.18359-2.582 0.18359-1.6604 0-2.9663-0.53816-3.918-1.6113-0.95168-1.0732-1.4277-2.6106-1.4277-4.6152v-19.592h9.6582v-3.918h-9.6582v-7.7148zm-74.959 7.1074c-2.1463 0-4.0907 0.45601-5.832 1.3672-1.7211 0.91118-3.0561 2.177-4.0078 3.7969h-0.24414l-0.82031-4.5566h-4.0996v33.289h5.041v-17.465c0-4.3129 0.72962-7.4099 2.1875-9.293 1.4781-1.9033 3.7963-2.8555 6.9551-2.8555 2.4096 0 4.1806 0.66751 5.3144 2.0039 1.1339 1.3161 1.7012 3.3006 1.7012 5.9531v21.656h5.043v-18.588c0-3.7459 0.74967-6.5202 2.248-8.3223 1.4984-1.8021 3.8166-2.7031 6.9551-2.7031 2.3893 0 4.1493 0.66751 5.2832 2.0039 1.1339 1.3161 1.7012 3.3006 1.7012 5.9531v21.656h5.043v-21.717c0-4.2522-0.94112-7.3401-2.8242-9.2637-1.8628-1.9438-4.6791-2.916-8.4453-2.916-2.4096 0-4.5544 0.50711-6.4375 1.5195s-3.3223 2.3895-4.3144 4.1309h-0.24219c-1.5996-3.7662-5.0012-5.6504-10.205-5.6504zm53.092 0c-3.8472 0-6.875 0.78977-9.082 2.3691-2.2071 1.5591-3.3106 3.6969-3.3106 6.4102 0 1.5186 0.31371 2.8246 0.94141 3.918 0.64794 1.0934 1.6201 2.0746 2.916 2.9453 1.3161 0.85043 3.5231 1.8537 6.6211 3.0078 3.26 1.2554 5.4469 2.3479 6.5605 3.2793 1.1339 0.91118 1.7012 2.0147 1.7012 3.3105 0 1.7211-0.70957 3.007-2.127 3.8574-1.4174 0.83018-3.4419 1.2461-6.0742 1.2461-1.7009 0-3.4718-0.23351-5.3144-0.69922-1.8224-0.46571-3.5332-1.1041-5.1328-1.9141v4.6777c2.4703 1.3971 5.912 2.0957 10.326 2.0957 4.1712 0 7.4104-0.84087 9.7188-2.5215s3.4629-4.07 3.4629-7.168c0-2.2071-0.69856-4.0382-2.0957-5.4961-1.3769-1.4579-4.0398-2.9061-7.9883-4.3438-2.8753-1.0732-4.8196-1.894-5.832-2.4609-1.0124-0.56696-1.7511-1.1633-2.2168-1.791-0.44546-0.6277-0.66797-1.3884-0.66797-2.2793 0-1.3161 0.60737-2.3485 1.8223-3.0977 1.2149-0.74919 3.0169-1.123 5.4062-1.123 2.7133 0 5.741 0.68756 9.082 2.0645l1.791-4.0996c-3.422-1.4579-6.9238-2.1875-10.508-2.1875zm54.123 0c-4.4546 0-8.0076 1.5795-10.66 4.7383-2.6323 3.1587-3.9492 7.4213-3.9492 12.787 0 5.3253 1.4172 9.4876 4.252 12.484 2.855 2.9968 6.7437 4.4941 11.664 4.4941 2.2476 0 4.1609-0.1714 5.7402-0.51562 1.5996-0.32397 3.2904-0.87119 5.0723-1.6406v-4.4961c-3.503 1.4984-7.0469 2.248-10.631 2.248-3.4017 0-6.0446-1.0123-7.9277-3.0371-1.8628-2.0248-2.8441-4.9905-2.9453-8.8984h22.932v-3.1895c0-4.4951-1.2147-8.1102-3.6445-10.844-2.4298-2.7538-5.7312-4.1309-9.9023-4.1309zm37.297 0c-2.0856 0-3.9989 0.58731-5.7402 1.7617s-3.2297 2.8451-4.4648 5.0117h-0.24218l-0.57618-6.166h-4.1621v33.289h5.041v-17.859c0-3.26 0.95212-5.9831 2.8555-8.1699 1.9236-2.1868 4.2328-3.2793 6.9258-3.2793 1.0529 0 2.2676 0.15135 3.6445 0.45508l0.69922-4.6777c-1.1744-0.24298-2.5023-0.36523-3.9805-0.36523zm-191.1 0.60742v33.289h5.043v-33.289zm153.75 3.6152c2.6323 0 4.6568 0.84992 6.0742 2.5508 1.4174 1.6806 2.127 4.1101 2.127 7.2891h-17.404c0.28348-3.0778 1.2156-5.4872 2.7949-7.2285 1.5996-1.7414 3.7354-2.6113 6.4082-2.6113z" fill="#5b5b92" stroke-width="2.9158"/>
 </g>
</svg>
